<svg width="16" height="20" viewBox="0 0 16 20" fill="none" xmlns="http://www.w3.org/2000/svg">
<path fill-rule="evenodd" clip-rule="evenodd" d="M8.73647 19.2694C12.2413 15.7995 16 12.0783 16 7.96774C16 3.56728 12.4183 0 8 0C3.58172 0 0 3.56728 0 7.96774C0 12.2688 4.00971 16.1438 7.74185 19.7505C7.82806 19.8338 7.91413 19.917 8 20C8.24329 19.7577 8.48925 19.5142 8.73647 19.2694ZM8 11C9.65685 11 11 9.65685 11 8C11 6.34315 9.65685 5 8 5C6.34315 5 5 6.34315 5 8C5 9.65685 6.34315 11 8 11Z" fill="#911B22"/>
</svg>
